<svg width="24" height="24" viewBox="0 0 24 24" fill="none" xmlns="http://www.w3.org/2000/svg">
<path d="M9.6047 0C4.31586 0 0 4.31586 0 9.6047C0 14.8935 4.31586 19.2094 9.6047 19.2094C11.7728 19.2094 13.7704 18.4761 15.3812 17.2559L21.5847 23.458C21.7068 23.5852 21.853 23.6867 22.0148 23.7566C22.1766 23.8265 22.3507 23.8635 22.5269 23.8653C22.7032 23.8671 22.878 23.8337 23.0412 23.7671C23.2044 23.7004 23.3527 23.6019 23.4773 23.4773C23.6019 23.3527 23.7004 23.2044 23.7671 23.0412C23.8337 22.878 23.8671 22.7032 23.8653 22.5269C23.8635 22.3507 23.8265 22.1766 23.7566 22.0148C23.6867 21.853 23.5852 21.7068 23.458 21.5847L17.2559 15.3812C18.4761 13.7704 19.2094 11.7728 19.2094 9.6047C19.2094 4.31586 14.8935 0 9.6047 0ZM9.6047 2.64957C13.4616 2.64957 16.5598 5.7478 16.5598 9.6047C16.5598 11.4566 15.8405 13.129 14.671 14.3721C14.5571 14.4545 14.4571 14.5545 14.3747 14.6684C13.1313 15.8394 11.4579 16.5598 9.6047 16.5598C5.74779 16.5598 2.64957 13.4616 2.64957 9.6047C2.64957 5.7478 5.74779 2.64957 9.6047 2.64957Z" fill="#931932"/>
</svg>
